<svg id="Layer_1" data-name="Layer 1" xmlns="http://www.w3.org/2000/svg" viewBox="0 0 89 25"><defs><style>.cls-1{fill:#004baf;}.cls-2{fill:#fff;}.cls-3{fill:none;stroke:#fff;stroke-width:0.5px;}</style></defs><rect class="cls-1" width="89" height="25" rx="3"/><path class="cls-2" d="M49.45,13a2.37,2.37,0,0,1-.75,1.57,2.5,2.5,0,0,1-1.68.55,2.26,2.26,0,0,1-1.82-.82,3.28,3.28,0,0,1-.68-2.17v-.62a3.65,3.65,0,0,1,.32-1.56,2.3,2.3,0,0,1,.9-1,2.56,2.56,0,0,1,1.36-.37,2.3,2.3,0,0,1,1.63.57,2.41,2.41,0,0,1,.72,1.58H48.6a1.79,1.79,0,0,0-.48-1.11,1.41,1.41,0,0,0-1-.34,1.52,1.52,0,0,0-1.27.6,2.69,2.69,0,0,0-.46,1.7v.62a2.81,2.81,0,0,0,.44,1.65A1.4,1.4,0,0,0,47,14.4a1.64,1.64,0,0,0,1.08-.32A1.75,1.75,0,0,0,48.6,13Zm.81-.39a2.84,2.84,0,0,1,.27-1.26,2.08,2.08,0,0,1,.77-.86,2.11,2.11,0,0,1,1.12-.3,2,2,0,0,1,1.57.67,2.58,2.58,0,0,1,.6,1.79v.06a2.79,2.79,0,0,1-.27,1.24,1.93,1.93,0,0,1-.76.86,2.19,2.19,0,0,1-2.7-.36,2.59,2.59,0,0,1-.6-1.78Zm.82.1A2.08,2.08,0,0,0,51.44,14a1.21,1.21,0,0,0,1,.47,1.16,1.16,0,0,0,1-.48,2.18,2.18,0,0,0,.37-1.36,2,2,0,0,0-.38-1.27,1.16,1.16,0,0,0-1-.48,1.15,1.15,0,0,0-1,.47A2.2,2.2,0,0,0,51.08,12.68Zm5.3-2.43,0,.59a1.73,1.73,0,0,1,1.42-.68c1,0,1.51.56,1.52,1.7V15h-.81V11.85a1.11,1.11,0,0,0-.24-.76,1,1,0,0,0-.72-.24,1.17,1.17,0,0,0-.69.21,1.4,1.4,0,0,0-.47.55V15h-.81V10.25Zm5,0,0,.59a1.75,1.75,0,0,1,1.43-.68c1,0,1.51.56,1.52,1.7V15H63.5V11.85a1.11,1.11,0,0,0-.23-.76,1,1,0,0,0-.72-.24,1.2,1.2,0,0,0-.7.21,1.46,1.46,0,0,0-.46.55V15h-.81V10.25Zm6.17,4.84a2.1,2.1,0,0,1-1.58-.63,2.41,2.41,0,0,1-.6-1.71V12.6a2.84,2.84,0,0,1,.26-1.26,2.23,2.23,0,0,1,.76-.87,1.89,1.89,0,0,1,1-.31,1.8,1.8,0,0,1,1.45.61,2.67,2.67,0,0,1,.51,1.75v.34H66.15A1.7,1.7,0,0,0,66.56,14a1.27,1.27,0,0,0,1,.43,1.39,1.39,0,0,0,.73-.17,1.78,1.78,0,0,0,.52-.47l.5.39A2,2,0,0,1,67.52,15.09Zm-.11-4.26a1.08,1.08,0,0,0-.82.36,1.77,1.77,0,0,0-.42,1h2.39v-.06a1.55,1.55,0,0,0-.34-1A1,1,0,0,0,67.41,10.83Zm4.81,3.59a1.13,1.13,0,0,0,.76-.26.9.9,0,0,0,.36-.66h.77a1.48,1.48,0,0,1-.28.78,1.81,1.81,0,0,1-.69.59,2.11,2.11,0,0,1-.92.22,2,2,0,0,1-1.55-.65,2.58,2.58,0,0,1-.57-1.77v-.14a2.85,2.85,0,0,1,.26-1.23,1.93,1.93,0,0,1,.73-.84,2.07,2.07,0,0,1,1.13-.3,1.88,1.88,0,0,1,1.32.48,1.67,1.67,0,0,1,.57,1.24h-.77a1.11,1.11,0,0,0-.35-.76,1.07,1.07,0,0,0-.77-.29,1.14,1.14,0,0,0-1,.44,2.16,2.16,0,0,0-.33,1.29v.15A2.11,2.11,0,0,0,71.25,14,1.14,1.14,0,0,0,72.22,14.42Zm3.91-5.33v1.16H77v.62h-.89v3a.65.65,0,0,0,.12.43.48.48,0,0,0,.4.14,1.65,1.65,0,0,0,.39-.05V15a2.34,2.34,0,0,1-.63.09,1,1,0,0,1-.82-.33,1.44,1.44,0,0,1-.27-.94v-3h-.87v-.62h.87V9.09Z" transform="translate(-4)"/><rect class="cls-3" x="17.25" y="6.25" width="12.5" height="12.5"/><rect class="cls-3" x="23.25" y="10.25" width="6.5" height="4.5"/><circle class="cls-2" cx="25.5" cy="12.5" r="0.5"/></svg>