<?xml version="1.0" encoding="utf-8"?>
<!-- Generator: Adobe Illustrator 26.0.3, SVG Export Plug-In . SVG Version: 6.00 Build 0)  -->
<svg version="1.1" id="Layer_1" xmlns="http://www.w3.org/2000/svg" xmlns:xlink="http://www.w3.org/1999/xlink" x="0px" y="0px"
	 viewBox="0 0 40 40" style="enable-background:new 0 0 40 40;" xml:space="preserve">
<style type="text/css">
	.st0{fill-rule:evenodd;clip-rule:evenodd;fill:#004BAF;}
</style>
<g>
	<path class="st0" d="M20,0C9,0,0,9,0,20s9,20,20,20s20-9,20-20S31,0,20,0z M12.4,8.7h15.8c1.3,0,2.4,1.1,2.4,2.4V32l-2.5-2.2
		l-1.4-1.3l-1.5-1.4l0.6,2.2H12.4c-1.3,0-2.4-1.1-2.4-2.4V11.1C10,9.7,11.1,8.7,12.4,8.7z"/>
	<path class="st0" d="M23.7,23.9c0,0-0.4-0.5-0.8-0.9c1.5-0.4,2.1-1.4,2.1-1.4c-0.5,0.3-0.9,0.5-1.4,0.7c-0.6,0.2-1.2,0.4-1.7,0.5
		c-1.1,0.2-2.2,0.2-3.1,0c-0.7-0.1-1.3-0.3-1.7-0.5c-0.3-0.1-0.6-0.2-0.9-0.4c0,0,0,0-0.1,0c0,0,0,0-0.1,0c0,0,0,0,0,0
		c-0.2-0.1-0.3-0.2-0.3-0.2s0.6,0.9,2.1,1.4c-0.4,0.4-0.8,1-0.8,1c-2.6-0.1-3.6-1.8-3.6-1.8c0-3.8,1.7-6.8,1.7-6.8
		c1.7-1.3,3.3-1.2,3.3-1.2l0.1,0.1c-2.1,0.6-3.1,1.5-3.1,1.5s0.3-0.1,0.7-0.3c1.3-0.5,2.3-0.7,2.7-0.7l0,0c0.1,0,0.1,0,0.2,0
		c0.7-0.1,1.5-0.1,2.4,0c1.1,0.1,2.3,0.5,3.6,1.1c0,0-0.9-0.9-2.9-1.5l0.2-0.2c0,0,1.6,0,3.3,1.2c0,0,1.7,3,1.7,6.8
		C27.3,22.1,26.3,23.8,23.7,23.9z M18.5,18.7c-0.7,0-1.2,0.6-1.2,1.3c0,0.7,0.5,1.3,1.2,1.3c0.7,0,1.2-0.6,1.2-1.3
		C19.7,19.3,19.2,18.7,18.5,18.7z M21.6,20c0-0.7,0.5-1.3,1.2-1.3c0.7,0,1.2,0.6,1.2,1.3c0,0.7-0.5,1.3-1.2,1.3
		C22.1,21.3,21.6,20.7,21.6,20z"/>
</g>
</svg>
