<?xml version="1.0" encoding="utf-8"?>
<!-- Generator: Adobe Illustrator 26.0.3, SVG Export Plug-In . SVG Version: 6.00 Build 0)  -->
<svg version="1.1" id="Layer_1" xmlns="http://www.w3.org/2000/svg" xmlns:xlink="http://www.w3.org/1999/xlink" x="0px" y="0px"
	 viewBox="0 0 14 15" style="enable-background:new 0 0 14 15;" xml:space="preserve">
<style type="text/css">
	.st0{clip-path:url(#SVGID_00000159437401877337531750000005915951564572674725_);}
	.st1{fill:#004BAF;}
</style>
<g>
	<defs>
		<rect id="SVGID_1_" y="0.5" width="14" height="14"/>
	</defs>
	<clipPath id="SVGID_00000156576795778651056590000003105188983835329169_">
		<use xlink:href="#SVGID_1_"  style="overflow:visible;"/>
	</clipPath>
	<g style="clip-path:url(#SVGID_00000156576795778651056590000003105188983835329169_);">
		<path class="st1" d="M6.3,10.9c0.2,0,0.4,0.2,0.4,0.4c0,0.2-0.2,0.4-0.4,0.4c-0.2,0-0.4-0.2-0.4-0.4C5.9,11,6.1,10.9,6.3,10.9z
			 M12.7,8.3c-0.2,0-0.4-0.2-0.4-0.4c0-0.2,0.2-0.4,0.4-0.4c0.2,0,0.4,0.2,0.4,0.4C13.1,8.1,12.9,8.3,12.7,8.3z M12.7,6.6
			c-0.7,0-1.3,0.6-1.3,1.3c0,0.1,0,0.3,0.1,0.4l-4.2,2.2c-0.2-0.3-0.6-0.5-1-0.5c-0.5,0-0.9,0.3-1.1,0.7l-3.8-2
			C1,8.5,0.7,7.9,0.7,7.3C0.8,7,0.9,6.7,1,6.6c0.1-0.1,0.2,0,0.4,0l0,0c1,0.5,4.3,2.2,4.4,2.3c0.2,0.1,0.3,0.1,0.7,0l6.7-3.5
			c0.1,0,0.2-0.1,0.2-0.3c0-0.2-0.2-0.3-0.2-0.3c-0.4-0.2-1-0.5-1.6-0.7c-1.2-0.6-2.6-1.2-3.2-1.6c-0.5-0.3-1,0-1,0L7.3,2.6
			C4.5,4,0.9,5.9,0.6,6C0.3,6.2,0,6.7,0,7.2c0,0.9,0.4,1.8,1.1,2.2l4,2.1c0.1,0.6,0.6,1.1,1.2,1.1c0.7,0,1.2-0.5,1.3-1.2l4.4-2.4
			c0.2,0.2,0.5,0.3,0.8,0.3c0.7,0,1.3-0.6,1.3-1.3C14,7.2,13.4,6.6,12.7,6.6z"/>
	</g>
</g>
</svg>
