<?xml version="1.0" encoding="utf-8"?>
<!-- Generator: Adobe Illustrator 26.0.3, SVG Export Plug-In . SVG Version: 6.00 Build 0)  -->
<svg version="1.1" id="Layer_1" xmlns="http://www.w3.org/2000/svg" xmlns:xlink="http://www.w3.org/1999/xlink" x="0px" y="0px"
	 viewBox="0 0 24 24" style="enable-background:new 0 0 24 24;" xml:space="preserve">
<style type="text/css">
	.st0{fill:#004BAF;}
</style>
<path class="st0" d="M20.9,1.5c0.9,0,1.5,0.6,1.5,1.5v1.4c0,2.2-0.8,4.2-2.4,5.8l-2.9,2.8v5.7c0,0.2-0.1,0.5-0.3,0.6l-3.8,3
	c-0.2,0.1-0.3,0.1-0.4,0.1c-0.1,0-0.2,0-0.3-0.1c-0.2-0.1-0.4-0.3-0.4-0.6l-0.8-5.2l1.5-0.2l0.6,4l2.5-2v-5.6c0-0.2,0.1-0.4,0.2-0.5
	l3.1-3c1.3-1.4,2-3,2-4.8V3h-1.4c-1.7,0-3.5,0.8-4.7,1.9L11.8,8c-0.2,0.2-0.4,0.2-0.6,0.2H5.6l-1.9,2.5l4,0.6l-0.2,1.5l-5.2-0.8
	c-0.3-0.1-0.5-0.2-0.6-0.4c-0.1-0.2-0.1-0.5,0.1-0.8l3-3.8C4.7,6.8,5,6.8,5.2,6.8h5.7l2.8-2.8c1.5-1.5,3.7-2.4,5.8-2.4H20.9z
	 M11.4,11.5l1.1,1.1l-6,6l-1.1-1.1L11.4,11.5z"/>
</svg>
