<?xml version="1.0" encoding="utf-8"?>
<!-- Generator: Adobe Illustrator 26.0.3, SVG Export Plug-In . SVG Version: 6.00 Build 0)  -->
<svg version="1.1" id="Layer_1" xmlns="http://www.w3.org/2000/svg" xmlns:xlink="http://www.w3.org/1999/xlink" x="0px" y="0px"
	 viewBox="0 0 32 32" style="enable-background:new 0 0 32 32;" xml:space="preserve">
<style type="text/css">
	.st0{fill:#004BAF;}
</style>
<path class="st0" d="M22.8,15.4c0,0,4-7.2-7.6-3.4c1.5-1.1,1.2-3.5,0.1-4.3C11,4.6,0.6,14.4,0.6,20.3c0,3.6,3.8,8.2,12.6,8.2
	c11,0,14.4-6,14.4-8.9C27.6,15.5,22.8,15.4,22.8,15.4z M13.5,26.9c-5.1,0.5-9.5-2-9.9-5.4c-0.3-3.5,3.6-6.7,8.7-7.2
	c5.1-0.5,9.5,2,9.9,5.4C22.5,23.2,18.6,26.4,13.5,26.9z"/>
<path class="st0" d="M11.7,16.8C8.9,17.3,7,19.6,7.4,22c0.4,2.4,3,3.9,5.7,3.5c2.8-0.5,4.7-2.8,4.3-5.2C17,17.9,14.5,16.4,11.7,16.8
	z M11.2,23.6c-0.9,0.2-1.8-0.2-2-1c-0.2-0.8,0.3-1.7,1.2-1.9c0.9-0.2,1.8,0.2,2,1C12.6,22.5,12.1,23.4,11.2,23.6z M13.5,21
	c-0.5,0-0.8-0.4-0.8-0.8c0-0.5,0.4-0.8,0.8-0.8s0.8,0.4,0.8,0.8C14.4,20.6,14,21,13.5,21z"/>
<path class="st0" d="M29.7,6.5c-1.8-2.4-4.8-3.4-8.3-2.9c-0.6,0.1-1,0.6-0.9,1.2c0.1,0.6,0.6,1,1.2,0.9c3.5-0.5,5.3,0.8,6.3,2.1
	c1.2,1.6,1.6,3.9,0.9,5.7c-0.2,0.6,0,1.2,0.6,1.4c0.1,0.1,0.3,0.1,0.4,0.1c0.4,0,0.8-0.3,1-0.7C31.9,11.8,31.4,8.7,29.7,6.5z"/>
<path class="st0" d="M22.4,7.5c-0.6,0.1-1,0.6-0.9,1.2c0.1,0.6,0.6,1,1.2,0.9c1-0.1,1.8,0.1,2.2,0.7c0.4,0.5,0.5,1.3,0.3,1.9
	c-0.2,0.6,0,1.2,0.6,1.4c0.1,0.1,0.3,0.1,0.4,0.1c0.4,0,0.8-0.3,1-0.7c0.5-1.3,0.3-2.9-0.6-4.1C26.1,8.3,24.9,7.2,22.4,7.5z"/>
</svg>
