<?xml version="1.0" encoding="utf-8"?>
<!-- Generator: Adobe Illustrator 26.0.3, SVG Export Plug-In . SVG Version: 6.00 Build 0)  -->
<svg version="1.1" id="Layer_1" xmlns="http://www.w3.org/2000/svg" xmlns:xlink="http://www.w3.org/1999/xlink" x="0px" y="0px"
	 viewBox="0 0 20 21" style="enable-background:new 0 0 20 21;" xml:space="preserve">
<style type="text/css">
	.st0{fill:#004BAF;}
</style>
<path class="st0" d="M8.6,9.5c-0.5,0-0.8,0.4-0.8,0.9c0,0.5,0.4,0.9,0.8,0.9c0.5,0,0.8-0.4,0.8-0.9C9.4,9.9,9,9.5,8.6,9.5z
	 M11.5,9.5c-0.5,0-0.8,0.4-0.8,0.9c0,0.5,0.4,0.9,0.8,0.9c0.5,0,0.8-0.4,0.8-0.9C12.3,9.9,11.9,9.5,11.5,9.5z"/>
<path class="st0" d="M15.4,2.9H4.6C3.7,2.9,3,3.6,3,4.5v10.7c0,0.9,0.7,1.6,1.6,1.6h9.1l-0.4-1.5l1,0.9l1,0.9l1.7,1.5V4.5
	C17,3.6,16.3,2.9,15.4,2.9z M12.3,13.2c0,0-0.3-0.3-0.5-0.6c1-0.3,1.4-0.9,1.4-0.9c-0.3,0.2-0.6,0.4-0.9,0.5
	c-0.4,0.2-0.8,0.3-1.2,0.3c-0.8,0.1-1.5,0.1-2.1,0c-0.5-0.1-0.8-0.2-1.2-0.3C7.7,12,7.5,12,7.3,11.9c0,0,0,0-0.1,0c0,0,0,0,0,0
	C7,11.7,7,11.7,7,11.7s0.4,0.6,1.4,0.9c-0.2,0.3-0.5,0.7-0.5,0.7C6,13.2,5.4,12,5.4,12c0-2.6,1.2-4.6,1.2-4.6
	c1.2-0.9,2.2-0.8,2.2-0.8l0.1,0.1c-1.4,0.4-2.1,1-2.1,1s0.2-0.1,0.5-0.2C8.1,7.1,8.8,7,9,7c0,0,0.1,0,0.1,0c0.5-0.1,1-0.1,1.6,0
	c0.8,0.1,1.6,0.3,2.4,0.8c0,0-0.6-0.6-2-1l0.1-0.1c0,0,1.1,0,2.2,0.8c0,0,1.2,2.1,1.2,4.6C14.7,12,14,13.2,12.3,13.2z"/>
</svg>
