<?xml version="1.0" encoding="utf-8"?>
<!-- Generator: Adobe Illustrator 26.0.3, SVG Export Plug-In . SVG Version: 6.00 Build 0)  -->
<svg version="1.1" id="Layer_1" xmlns="http://www.w3.org/2000/svg" xmlns:xlink="http://www.w3.org/1999/xlink" x="0px" y="0px"
	 viewBox="0 0 24 25" style="enable-background:new 0 0 24 25;" xml:space="preserve">
<style type="text/css">
	.st0{fill-rule:evenodd;clip-rule:evenodd;fill:#004BAF;}
</style>
<path class="st0" d="M5.5,12l8.1-3.5c3.8-1.6,4.6-1.9,5.2-1.9c0.1,0,0.4,0,0.5,0.2c0.1,0.1,0.2,0.3,0.2,0.4c0,0.1,0,0.4,0,0.5
	c-0.2,2.2-1.1,7.5-1.6,9.9c-0.2,1-0.6,1.4-0.9,1.4c-0.8,0.1-1.4-0.5-2.2-1l-3.1-2.1c-1.4-0.9-0.5-1.4,0.3-2.2
	c0.2-0.2,3.7-3.4,3.8-3.7c0,0,0-0.2-0.1-0.2c-0.1-0.1-0.2,0-0.3,0c-0.1,0-2.1,1.3-5.8,3.9c-0.6,0.4-1.1,0.6-1.5,0.6
	c-0.5,0-1.4-0.3-2.1-0.5c-0.9-0.3-1.6-0.4-1.5-0.9C4.5,12.5,4.9,12.2,5.5,12L5.5,12z"/>
</svg>
