<?xml version="1.0" encoding="utf-8"?>
<!-- Generator: Adobe Illustrator 26.0.3, SVG Export Plug-In . SVG Version: 6.00 Build 0)  -->
<svg version="1.1" id="Layer_1" xmlns="http://www.w3.org/2000/svg" xmlns:xlink="http://www.w3.org/1999/xlink" x="0px" y="0px"
	 viewBox="0 0 20 21" style="enable-background:new 0 0 20 21;" xml:space="preserve">
<style type="text/css">
	.st0{fill-rule:evenodd;clip-rule:evenodd;fill:#004BAF;}
</style>
<path class="st0" d="M18,5.6c-0.6,0.3-1.3,0.5-2,0.5c0.7-0.4,1.3-1.1,1.5-1.9c-0.7,0.4-1.4,0.7-2.1,0.8c-1-1-2.4-1.3-3.7-0.8
	C10.3,4.7,9.5,6,9.5,7.4c0,0.3,0.1,0.5,0.1,0.8C6.8,8,4.2,6.7,2.5,4.6C2.2,5.1,2,5.7,2,6.3c0,1.2,0.6,2.2,1.5,2.9C3,9.2,2.5,9,2,8.8
	v0.1c0,1.6,1.1,3,2.7,3.3c-0.3,0.1-0.6,0.1-0.9,0.1c-0.2,0-0.4,0-0.7-0.1c0.5,1.4,1.7,2.3,3.2,2.4c-1.2,0.9-2.7,1.5-4.2,1.5
	c-0.3,0-0.6,0-0.8-0.1c1.6,1,3.4,1.5,5.2,1.5c6.3,0,9.7-5.2,9.7-9.7V7.5C17,6.9,17.5,6.3,18,5.6z"/>
</svg>
