<?xml version="1.0" encoding="utf-8"?>
<!-- Generator: Adobe Illustrator 26.0.3, SVG Export Plug-In . SVG Version: 6.00 Build 0)  -->
<svg version="1.1" id="Layer_1" xmlns="http://www.w3.org/2000/svg" xmlns:xlink="http://www.w3.org/1999/xlink" x="0px" y="0px"
	 viewBox="0 0 24 24" style="enable-background:new 0 0 24 24;" xml:space="preserve">
<style type="text/css">
	.st0{fill:#004BAF;}
</style>
<path class="st0" d="M19.5,16.5c-0.5,0-1,0.2-1.5,0.4l-2.3-2.3c1.1-1.6,1.1-3.7,0-5.2L18,7.1c1.3,0.8,3,0.4,3.9-0.8
	c0.9-1.2,0.8-2.9-0.3-4c-1.1-1.1-2.8-1.2-4-0.3C16.5,3,16.2,4.7,16.9,6l-2.3,2.3c-1.6-1.1-3.7-1.1-5.2,0L7.1,6
	c0.8-1.3,0.4-3-0.8-3.9c-1.2-0.9-2.9-0.8-4,0.3c-1.1,1.1-1.2,2.8-0.3,4C3,7.5,4.7,7.9,6,7.1l2.3,2.3c-1.1,1.6-1.1,3.7,0,5.2L6,16.9
	c-1.3-0.8-3-0.4-3.9,0.8c-0.9,1.2-0.8,2.9,0.3,4c1.1,1.1,2.8,1.2,4,0.3C7.5,21,7.9,19.3,7.1,18l2.3-2.3c1.6,1.1,3.7,1.1,5.2,0
	l2.3,2.3c-0.7,1.2-0.5,2.7,0.5,3.6s2.5,1.2,3.6,0.5c1.2-0.7,1.7-2.1,1.4-3.4C22.1,17.4,20.9,16.5,19.5,16.5z M19.5,3
	C20.3,3,21,3.7,21,4.5S20.3,6,19.5,6C18.7,6,18,5.3,18,4.5S18.7,3,19.5,3z M3,4.5C3,3.7,3.7,3,4.5,3S6,3.7,6,4.5S5.3,6,4.5,6
	C4.1,6,3.7,5.9,3.5,5.6C3.2,5.3,3,4.9,3,4.5z M4.5,21C3.7,21,3,20.3,3,19.5C3,18.7,3.7,18,4.5,18S6,18.7,6,19.5
	C6,20.3,5.3,21,4.5,21z M12,15c-1.7,0-3-1.3-3-3s1.3-3,3-3s3,1.3,3,3c0,0.8-0.3,1.6-0.9,2.1S12.8,15,12,15z M19.5,21
	c-0.8,0-1.5-0.7-1.5-1.5c0-0.8,0.7-1.5,1.5-1.5c0.8,0,1.5,0.7,1.5,1.5C21,20.3,20.3,21,19.5,21z"/>
</svg>
