<?xml version="1.0" encoding="utf-8"?>
<!-- Generator: Adobe Illustrator 26.0.3, SVG Export Plug-In . SVG Version: 6.00 Build 0)  -->
<svg version="1.1" id="Layer_1" xmlns="http://www.w3.org/2000/svg" xmlns:xlink="http://www.w3.org/1999/xlink" x="0px" y="0px"
	 viewBox="0 0 24 24" style="enable-background:new 0 0 24 24;" xml:space="preserve">
<style type="text/css">
	.st0{fill:#004BAF;}
</style>
<path class="st0" d="M9,3H4.5C3.7,3,3,3.7,3,4.5V9c0,0.8,0.7,1.5,1.5,1.5H9c0.8,0,1.5-0.7,1.5-1.5V4.5C10.5,3.7,9.8,3,9,3z M9,9H4.5
	V4.5H9V9z M19.5,3H15c-0.8,0-1.5,0.7-1.5,1.5V9c0,0.8,0.7,1.5,1.5,1.5h4.5c0.8,0,1.5-0.7,1.5-1.5V4.5C21,3.7,20.3,3,19.5,3z M19.5,9
	H15V4.5h4.5V9z M9,13.5H4.5C3.7,13.5,3,14.2,3,15v4.5C3,20.3,3.7,21,4.5,21H9c0.8,0,1.5-0.7,1.5-1.5V15C10.5,14.2,9.8,13.5,9,13.5z
	 M9,19.5H4.5V15H9V19.5z M19.5,13.5H15c-0.8,0-1.5,0.7-1.5,1.5v4.5c0,0.8,0.7,1.5,1.5,1.5h4.5c0.8,0,1.5-0.7,1.5-1.5V15
	C21,14.2,20.3,13.5,19.5,13.5z M19.5,19.5H15V15h4.5V19.5z"/>
</svg>
