<?xml version="1.0" encoding="utf-8"?>
<!-- Generator: Adobe Illustrator 26.0.3, SVG Export Plug-In . SVG Version: 6.00 Build 0)  -->
<svg version="1.1" id="Layer_1" xmlns="http://www.w3.org/2000/svg" xmlns:xlink="http://www.w3.org/1999/xlink" x="0px" y="0px"
	 viewBox="0 0 40 40" style="enable-background:new 0 0 40 40;" xml:space="preserve">
<style type="text/css">
	.st0{fill-rule:evenodd;clip-rule:evenodd;fill:#004BAF;}
</style>
<g>
	<path class="st0" d="M0,20c0,11,9,20,20,20s20-9,20-20S31,0,20,0S0,9,0,20z M16.3,29.2l0.3-5.1l0,0l9.3-8.4
		c0.4-0.4-0.1-0.5-0.6-0.2l-11.4,7.2l-4.9-1.5c-1.1-0.3-1.1-1.1,0.2-1.6l19.3-7.4c0.9-0.4,1.7,0.2,1.4,1.6l-3.3,15.5
		c-0.2,1.1-0.9,1.4-1.8,0.9l-5-3.7l-2.4,2.3c0,0,0,0,0,0C17,29,16.8,29.2,16.3,29.2z"/>
</g>
</svg>
