<?xml version="1.0" encoding="utf-8"?>
<!-- Generator: Adobe Illustrator 26.0.3, SVG Export Plug-In . SVG Version: 6.00 Build 0)  -->
<svg version="1.1" id="Layer_1" xmlns="http://www.w3.org/2000/svg" xmlns:xlink="http://www.w3.org/1999/xlink" x="0px" y="0px"
	 viewBox="0 0 40 40" style="enable-background:new 0 0 40 40;" xml:space="preserve">
<style type="text/css">
	.st0{fill-rule:evenodd;clip-rule:evenodd;fill:#004BAF;}
</style>
<g>
	<path class="st0" d="M20,0C9,0,0,9,0,20s9,20,20,20s20-9,20-20S31,0,20,0z M19.4,16.9l0-0.7c-0.1-1.8,1-3.4,2.7-4.1
		c0.6-0.2,1.7-0.3,2.4-0.1c0.3,0.1,0.8,0.4,1.2,0.6l0.7,0.5l0.8-0.2c0.4-0.1,1-0.3,1.2-0.5c0.2-0.1,0.4-0.2,0.4-0.2
		c0,0.2-0.5,1.1-1,1.5c-0.6,0.6-0.4,0.7,0.8,0.3c0.7-0.2,0.7-0.2,0.6,0c-0.1,0.1-0.5,0.6-1,1.1c-0.8,0.8-0.8,0.9-0.8,1.5
		c0,1-0.5,3.1-1,4.2c-0.9,2.1-2.8,4.4-4.7,5.5c-2.7,1.6-6.2,2-9.2,1c-1-0.3-2.7-1.1-2.7-1.2c0,0,0.5-0.1,1.1-0.1
		c1.3,0,2.6-0.4,3.7-1l0.8-0.5l-0.9-0.3c-1.2-0.4-2.3-1.4-2.6-2.3c-0.1-0.3-0.1-0.3,0.7-0.3l0.8,0L13,21.4c-0.8-0.4-1.6-1.1-1.9-1.8
		c-0.3-0.5-0.6-1.8-0.5-1.9c0,0,0.3,0,0.7,0.2c1,0.4,1.1,0.3,0.5-0.3c-1-1.1-1.4-2.7-0.9-4.2l0.2-0.7l0.9,0.9c1.9,1.9,4.1,3,6.7,3.3
		L19.4,16.9z"/>
</g>
</svg>
