<?xml version="1.0" encoding="utf-8"?>
<!-- Generator: Adobe Illustrator 26.0.3, SVG Export Plug-In . SVG Version: 6.00 Build 0)  -->
<svg version="1.1" id="Layer_1" xmlns="http://www.w3.org/2000/svg" xmlns:xlink="http://www.w3.org/1999/xlink" x="0px" y="0px"
	 viewBox="0 0 20 18" style="enable-background:new 0 0 20 18;" xml:space="preserve">
<style type="text/css">
	.st0{fill:#FFFFFF;}
	.st1{fill:#004BAF;}
</style>
<path class="st0" d="M10.3,11.9V5.1c0-0.8,0.7-1.5,1.5-1.5h7V1.5c0-0.8-0.7-1.5-1.5-1.5H1.5C0.7,0,0,0.7,0,1.5v14.1
	C0,16.4,0.7,17,1.5,17h15.8c0.8,0,1.5-0.7,1.5-1.5v-2.2h-7C11,13.4,10.3,12.7,10.3,11.9z"/>
<path class="st1" d="M18.8,4.6h-6.2c-0.6,0-1.2,0.5-1.2,1.2v5.4c0,0.6,0.5,1.2,1.2,1.2h6.2c0.6,0,1.2-0.5,1.2-1.2V5.8
	C20,5.1,19.5,4.6,18.8,4.6z M14.4,9.5c-0.6,0-1-0.5-1-1c0-0.6,0.5-1,1-1c0.6,0,1,0.5,1,1C15.4,9.1,14.9,9.5,14.4,9.5z"/>
</svg>
