<?xml version="1.0" encoding="utf-8"?>
<!-- Generator: Adobe Illustrator 26.0.3, SVG Export Plug-In . SVG Version: 6.00 Build 0)  -->
<svg version="1.1" id="Layer_1" xmlns="http://www.w3.org/2000/svg" xmlns:xlink="http://www.w3.org/1999/xlink" x="0px" y="0px"
	 viewBox="0 0 24 24" style="enable-background:new 0 0 24 24;" xml:space="preserve">
<style type="text/css">
	.st0{fill:#004BAF;}
</style>
<path class="st0" d="M11.2,23.2c0,0.4,0.3,0.8,0.8,0.8s0.8-0.3,0.8-0.8H11.2z M12.8,0.8C12.8,0.3,12.4,0,12,0s-0.8,0.3-0.8,0.8H12.8
	z M6.8,13.9c0,0.4,0.3,0.8,0.8,0.8s0.8-0.3,0.8-0.8H6.8z M8.2,2.7C8.2,2.3,7.9,2,7.5,2S6.8,2.3,6.8,2.7H8.2z M15.8,13.9
	c0,0.4,0.3,0.8,0.8,0.8s0.8-0.3,0.8-0.8H15.8z M17.2,2.7c0-0.4-0.3-0.8-0.8-0.8s-0.8,0.3-0.8,0.8H17.2z M15.2,18.2l0.5,0.5
	L15.2,18.2z M8.8,18.2l-0.5,0.5l0,0L8.8,18.2z M12,14.5l-0.4,0.6l0.4,0.3l0.4-0.3L12,14.5z M16.4,5.2l-0.3-0.7l-0.1,0L16,4.6
	L16.4,5.2z M12,8.5l-0.5,0.6L12,9.4l0.5-0.3L12,8.5z M7.6,5.2L8,4.6L7.9,4.5l-0.1,0L7.6,5.2z M15.8,6v9h1.5V6H15.8z M15.8,15
	c0,1-0.4,1.9-1.1,2.7l1.1,1.1c1-1,1.5-2.3,1.5-3.7H15.8z M14.7,17.7c-0.7,0.7-1.7,1.1-2.7,1.1v1.5c1.4,0,2.7-0.6,3.7-1.5L14.7,17.7z
	 M12,18.8c-1,0-1.9-0.4-2.7-1.1l-1.1,1.1c1,1,2.3,1.5,3.7,1.5V18.8z M9.3,17.7C8.6,16.9,8.2,16,8.2,15H6.8c0,1.4,0.6,2.7,1.5,3.7
	L9.3,17.7z M8.2,15V6H6.8v9H8.2z M7.1,11.7l4.5,3.4l0.9-1.2l-4.5-3.4L7.1,11.7z M12.4,15.1l4.5-3.4l-0.9-1.2l-4.5,3.4L12.4,15.1z
	 M16.2,4.4L16.2,4.4l0.5,1.4l0.1,0L16.2,4.4z M16,4.6l-4.4,3.3l0.9,1.2l4.4-3.3L16,4.6z M12.5,7.9L8,4.6L7.1,5.8l4.4,3.3L12.5,7.9z
	 M7.9,4.5L7.9,4.5L7.2,5.8l0.1,0L7.9,4.5z M12.8,23.2V0.8h-1.5v22.5H12.8z M8.2,13.9V2.7H6.8v11.2H8.2z M17.2,13.9V2.7h-1.5v11.2
	H17.2z"/>
</svg>
